# xmcd
#
# Track frame offsets: 
#        150
#        12162
#        24217
#        34592
#        46112
#        57468
#        69937
#        81864
#        94631
#        103798
#        114423
#        125071
#        138391
#        149021
#        159617
#        170783
#        182378
#        192772
#        202748
#        213882
#        221409
#        234092
#        246067
#        257944
#        270047
#
# Disc length: 3764 seconds
#
# Revision: 1
# Processed by: cddbd v1.5.2PL0 Copyright (c) Steve Scherf et al.
# Submitted via: ExactAudioCopyFreeDBPlugin 1.0
#
DISCID=4e0eb219
DTITLE=Various Artist - Soul Sixties [Real Gone Music]
DYEAR=2016
DGENRE=Soul
TTITLE0=Ruth Brown - Say it Again
TTITLE1=Steve Alaimo - One Good Reason
TTITLE2=Sugar Pie DeSanto - A Little Taste of Soul
TTITLE3=Bobby "Blue" Bland - Yield Not to Temptation
TTITLE4=King Coleman - Down in the Basement
TTITLE5=LaBrenda Ben and The Beljeans - The Chaperone
TTITLE6=Big Al Downing - The Story of My Life
TTITLE7=The Temptations - Paradise
TTITLE8=Willie Mitchell - The Crawl, Part 1
TTITLE9=The Delcos - Arabia
TTITLE10=The Del-Rios - Just Across the Street
TTITLE11=Smokey Robinson and The Miracles - You Really Got a Hold on Me
TTITLE12=Bunker Hill - Hide and Go Seek, Part 1
TTITLE13=The Elgins - Extra Extra
TTITLE14=The Fiestas - I Feel Good All Over
TTITLE15=The Supremes - Your Heart Belongs to Me
TTITLE16=The Nuggets - Just a Friend
TTITLE17=Big Dee Irwin - Everybody's Got a Dance with Me
TTITLE18=The Pips - Linda
TTITLE19=The Chiffons - Oh My Lover
TTITLE20=Bob B. Soxx and The Blue Jeans - Why Do Lovers Break Each Other
TTITLE20='s Hearts
TTITLE21=The Shirelles - Everybody Loves a Lover
TTITLE22=The Delcos - Those Three Little Words
TTITLE23=The Crystals - What a Nice Way to Turn Seventeen
TTITLE24=The Dells - The Bossa Nova Bird
EXTD=
EXTT0=
EXTT1=
EXTT2=
EXTT3=
EXTT4=
EXTT5=
EXTT6=
EXTT7=
EXTT8=
EXTT9=
EXTT10=
EXTT11=
EXTT12=
EXTT13=
EXTT14=
EXTT15=
EXTT16=
EXTT17=
EXTT18=
EXTT19=
EXTT20=
EXTT21=
EXTT22=
EXTT23=
EXTT24=
PLAYORDER=
